<svg width="148" height="117" viewBox="0 0 148 117" fill="none" xmlns="http://www.w3.org/2000/svg">
<path d="M67.392 93L67.2 57.384L49.92 86.376H41.472L24.288 58.344V93H6.72V25.8H22.368L45.984 64.584L69.024 25.8H84.672L84.864 93H67.392Z" fill="white"/>
<path d="M74.72 25.8H106.496C113.856 25.8 120.384 27.176 126.08 29.928C131.776 32.68 136.192 36.584 139.328 41.64C142.464 46.696 144.032 52.616 144.032 59.4C144.032 66.184 142.464 72.104 139.328 77.16C136.192 82.216 131.776 86.12 126.08 88.872C120.384 91.624 113.856 93 106.496 93H74.72V25.8ZM105.728 77.832C111.488 77.832 116.096 76.2 119.552 72.936C123.072 69.672 124.832 65.16 124.832 59.4C124.832 53.64 123.072 49.128 119.552 45.864C116.096 42.6 111.488 40.968 105.728 40.968H93.728V77.832H105.728Z" fill="white"/>
</svg>
